<svg width="1920" height="1080" xmlns="http://www.w3.org/2000/svg" xmlns:xlink="http://www.w3.org/1999/xlink" overflow="hidden"><defs><filter id="fx0" x="-10%" y="-10%" width="120%" height="120%" filterUnits="userSpaceOnUse" primitiveUnits="userSpaceOnUse"><feComponentTransfer color-interpolation-filters="sRGB"><feFuncR type="discrete" tableValues="0 0"/><feFuncG type="discrete" tableValues="0 0"/><feFuncB type="discrete" tableValues="0 0"/><feFuncA type="linear" slope="0.290196" intercept="0"/></feComponentTransfer><feGaussianBlur stdDeviation="7.39669 7.39669"/></filter><filter id="fx1" x="-10%" y="-10%" width="120%" height="120%" filterUnits="userSpaceOnUse" primitiveUnits="userSpaceOnUse"><feComponentTransfer color-interpolation-filters="sRGB"><feFuncR type="discrete" tableValues="0 0"/><feFuncG type="discrete" tableValues="0 0"/><feFuncB type="discrete" tableValues="0 0"/><feFuncA type="linear" slope="0.290196" intercept="0"/></feComponentTransfer><feGaussianBlur stdDeviation="7.39669 7.3922"/></filter><clipPath id="clip2"><rect x="0" y="0" width="1920" height="1080"/></clipPath><linearGradient x1="297.453" y1="-249.593" x2="1622.55" y2="1329.59" gradientUnits="userSpaceOnUse" spreadMethod="reflect" id="fill3"><stop offset="0" stop-color="#FFF4D5"/><stop offset="0.31" stop-color="#F2F2F2"/><stop offset="0.53" stop-color="#F2F2F2"/><stop offset="0.77" stop-color="#F2F2F2"/><stop offset="1" stop-color="#D4E4F4"/></linearGradient><clipPath id="clip4"><rect x="0" y="0" width="115" height="115"/></clipPath><linearGradient x1="72.8386" y1="15.2572" x2="42.0948" y2="99.7249" gradientUnits="userSpaceOnUse" spreadMethod="reflect" id="fill5"><stop offset="0" stop-color="#9A7500" stop-opacity="0.74902"/><stop offset="0.33" stop-color="#FFE699" stop-opacity="0.709804"/><stop offset="0.66" stop-color="#FFFBEF"/><stop offset="1" stop-color="#F2F2F2"/></linearGradient><linearGradient x1="450.25" y1="85.0506" x2="261.75" y2="602.949" gradientUnits="userSpaceOnUse" spreadMethod="reflect" id="fill6"><stop offset="0" stop-color="#9A7500" stop-opacity="0.74902"/><stop offset="0.33" stop-color="#FFE699" stop-opacity="0.709804"/><stop offset="0.66" stop-color="#FFFBEF"/><stop offset="1" stop-color="#F2F2F2"/></linearGradient><clipPath id="clip7"><rect x="0" y="0" width="115" height="81"/></clipPath><linearGradient x1="72.8386" y1="15.2479" x2="42.0948" y2="99.6644" gradientUnits="userSpaceOnUse" spreadMethod="reflect" id="fill8"><stop offset="0" stop-color="#4472C4" stop-opacity="0.74902"/><stop offset="0.27" stop-color="#AABBED" stop-opacity="0.74902"/><stop offset="0.64" stop-color="#ECF3FA"/><stop offset="1" stop-color="#F2F2F2"/></linearGradient><linearGradient x1="1683.25" y1="745.051" x2="1494.75" y2="1262.95" gradientUnits="userSpaceOnUse" spreadMethod="reflect" id="fill9"><stop offset="0" stop-color="#4472C4" stop-opacity="0.74902"/><stop offset="0.27" stop-color="#AABBED" stop-opacity="0.74902"/><stop offset="0.64" stop-color="#ECF3FA"/><stop offset="1" stop-color="#F2F2F2"/></linearGradient></defs><g clip-path="url(#clip2)"><rect x="0" y="0" width="1920" height="1080" fill="url(#fill3)"/><path d="M476 238.069C476 177.832 524.832 129 585.069 129L1446.93 129C1507.17 129 1556 177.832 1556 238.069L1556 894.931C1556 955.168 1507.17 1004 1446.93 1004L585.069 1004C524.832 1004 476 955.168 476 894.931Z" fill="#FFFFFF" fill-rule="evenodd" fill-opacity="0.501961"/><g filter="url(#fx0)" transform="matrix(6.0087 0 0 6.0087 -27 67)"><g clip-path="url(#clip4)"><path d="M22.4009 57.491C22.4009 38.1247 38.1004 22.4252 57.4667 22.4252 76.833 22.4252 92.5325 38.1247 92.5325 57.491 92.5325 76.8574 76.833 92.5569 57.4667 92.5569 38.1004 92.5569 22.4009 76.8574 22.4009 57.491Z" fill="url(#fill5)" fill-rule="evenodd"/></g></g><path d="M141 344C141 225.259 237.259 129 356 129 474.741 129 571 225.259 571 344 571 462.741 474.741 559 356 559 237.259 559 141 462.741 141 344Z" fill="url(#fill6)" fill-rule="evenodd"/><g filter="url(#fx1)" transform="matrix(6.0087 0 0 6.01235 1206 727)"><g clip-path="url(#clip7)" transform="matrix(1 0 0 1 0 1.42109e-14)"><path d="M22.4009 57.4561C22.4009 38.1016 38.1004 22.4116 57.4667 22.4116 76.833 22.4116 92.5325 38.1016 92.5325 57.4561 92.5325 76.8107 76.833 92.5007 57.4667 92.5007 38.1004 92.5007 22.4009 76.8107 22.4009 57.4561Z" fill="url(#fill8)" fill-rule="evenodd"/></g></g><path d="M1374 1004C1374 885.259 1470.26 789 1589 789 1707.74 789 1804 885.259 1804 1004 1804 1122.74 1707.74 1219 1589 1219 1470.26 1219 1374 1122.74 1374 1004Z" fill="url(#fill9)" fill-rule="evenodd"/><path d="M292 350.539C292 308.82 325.82 275 367.539 275L1664.46 275C1706.18 275 1740 308.82 1740 350.539L1740 805.461C1740 847.18 1706.18 881 1664.46 881L367.539 881C325.82 881 292 847.18 292 805.461Z" fill="#FFFFFF" fill-rule="evenodd"/></g></svg>