<svg width="1920" height="1080" xmlns="http://www.w3.org/2000/svg" xmlns:xlink="http://www.w3.org/1999/xlink" overflow="hidden"><defs><filter id="fx0" x="-10%" y="-10%" width="120%" height="120%" filterUnits="userSpaceOnUse" primitiveUnits="userSpaceOnUse"><feComponentTransfer color-interpolation-filters="sRGB"><feFuncR type="discrete" tableValues="0 0"/><feFuncG type="discrete" tableValues="0 0"/><feFuncB type="discrete" tableValues="0 0"/><feFuncA type="linear" slope="0.101961" intercept="0"/></feComponentTransfer><feGaussianBlur stdDeviation="1.77778 1.77778"/></filter><filter id="fx1" x="-10%" y="-10%" width="120%" height="120%" filterUnits="userSpaceOnUse" primitiveUnits="userSpaceOnUse"><feComponentTransfer color-interpolation-filters="sRGB"><feFuncR type="discrete" tableValues="0 0"/><feFuncG type="discrete" tableValues="0 0"/><feFuncB type="discrete" tableValues="0 0"/><feFuncA type="linear" slope="0.101961" intercept="0"/></feComponentTransfer><feGaussianBlur stdDeviation="1.77778 1.77778"/></filter><filter id="fx2" x="-10%" y="-10%" width="120%" height="120%" filterUnits="userSpaceOnUse" primitiveUnits="userSpaceOnUse"><feComponentTransfer color-interpolation-filters="sRGB"><feFuncR type="discrete" tableValues="0 0"/><feFuncG type="discrete" tableValues="0 0"/><feFuncB type="discrete" tableValues="0 0"/><feFuncA type="linear" slope="0.101961" intercept="0"/></feComponentTransfer><feGaussianBlur stdDeviation="1.77778 1.77778"/></filter><linearGradient x1="498.516" y1="-280.415" x2="1421.48" y2="1360.42" gradientUnits="userSpaceOnUse" spreadMethod="reflect" id="fill3"><stop offset="0" stop-color="#FFFBEF"/><stop offset="0.31" stop-color="#F2F2F2"/><stop offset="0.53" stop-color="#F2F2F2"/><stop offset="0.77" stop-color="#F2F2F2"/><stop offset="1" stop-color="#ECF3FA"/></linearGradient></defs><g><rect x="0" y="0" width="1920" height="1080" fill="url(#fill3)"/><g filter="url(#fx0)" transform="translate(30 45)"><g><path d="M7.32848 22.3285C7.32848 14.0442 14.0442 7.32848 22.3284 7.32848L1844.33 7.32848C1852.61 7.32848 1859.33 14.0442 1859.33 22.3285L1859.33 82.3285C1859.33 90.6127 1852.61 97.3285 1844.33 97.3285L22.3284 97.3285C14.0442 97.3285 7.32848 90.6127 7.32848 82.3285Z" stroke="#FFFFFF" stroke-miterlimit="8" fill="#FFFFFF" fill-rule="evenodd"/></g></g><path d="M34.5001 64.5001C34.5001 56.2158 41.2157 49.5001 49.5 49.5001L1871.5 49.5001C1879.78 49.5001 1886.5 56.2158 1886.5 64.5001L1886.5 124.5C1886.5 132.784 1879.78 139.5 1871.5 139.5L49.5 139.5C41.2157 139.5 34.5001 132.784 34.5001 124.5Z" stroke="#FFFFFF" stroke-width="1.33333" stroke-miterlimit="8" fill="#FFFFFF" fill-rule="evenodd"/><g filter="url(#fx1)" transform="translate(31 162)"><g><path d="M7.32848 27.6686C7.32848 16.4351 16.4351 7.32848 27.6686 7.32848L551.988 7.32848C563.222 7.32848 572.328 16.4351 572.328 27.6686L572.328 812.988C572.328 824.222 563.222 833.328 551.988 833.328L27.6686 833.328C16.4351 833.328 7.32848 824.222 7.32848 812.988Z" stroke="#FFFFFF" stroke-miterlimit="8" fill="#FFFFFF" fill-rule="evenodd"/></g></g><path d="M35.5001 186.84C35.5001 175.607 44.6067 166.5 55.8402 166.5L580.16 166.5C591.393 166.5 600.5 175.607 600.5 186.84L600.5 972.16C600.5 983.393 591.393 992.5 580.16 992.5L55.8402 992.5C44.6067 992.5 35.5001 983.393 35.5001 972.16Z" stroke="#FFFFFF" stroke-width="1.33333" stroke-miterlimit="8" fill="#FFFFFF" fill-rule="evenodd"/><g filter="url(#fx2)" transform="translate(616 162)"><g><path d="M7.32849 37.0651C7.32849 20.642 20.642 7.32848 37.0651 7.32848L1243.59 7.32848C1260.01 7.32848 1273.33 20.642 1273.33 37.0651L1273.33 803.592C1273.33 820.015 1260.01 833.328 1243.59 833.328L37.0651 833.328C20.642 833.328 7.32849 820.015 7.32849 803.592Z" stroke="#FFFFFF" stroke-miterlimit="8" fill="#FFFFFF" fill-rule="evenodd"/></g></g><path d="M620.5 196.237C620.5 179.814 633.814 166.5 650.237 166.5L1856.76 166.5C1873.19 166.5 1886.5 179.814 1886.5 196.237L1886.5 962.763C1886.5 979.187 1873.19 992.5 1856.76 992.5L650.237 992.5C633.814 992.5 620.5 979.187 620.5 962.763Z" stroke="#FFFFFF" stroke-width="1.33333" stroke-miterlimit="8" fill="#FFFFFF" fill-rule="evenodd"/></g></svg>